<mxfile host="Electron" agent="Mozilla/5.0 (Windows NT 10.0; Win64; x64) AppleWebKit/537.36 (KHTML, like Gecko) draw.io/28.0.6 Chrome/138.0.7204.100 Electron/37.2.3 Safari/537.36" version="28.0.6">
  <diagram name="Page-1" id="IblqqW6ehxG3_15kW-2k">
    <mxGraphModel dx="1042" dy="626" grid="1" gridSize="10" guides="1" tooltips="1" connect="1" arrows="1" fold="1" page="1" pageScale="1" pageWidth="850" pageHeight="1100" math="0" shadow="0">
      <root>
        <mxCell id="0" />
        <mxCell id="1" parent="0" />
        <mxCell id="WkAU_lrPhm98xwLYV3L1-1" value="" style="rounded=0;whiteSpace=wrap;html=1;" parent="1" vertex="1">
          <mxGeometry x="60" y="160" width="120" height="520" as="geometry" />
        </mxCell>
        <mxCell id="WkAU_lrPhm98xwLYV3L1-2" value="Source" style="text;html=1;align=center;verticalAlign=middle;whiteSpace=wrap;rounded=0;fillColor=default;" parent="1" vertex="1">
          <mxGeometry x="75" y="140" width="90" height="30" as="geometry" />
        </mxCell>
        <mxCell id="WkAU_lrPhm98xwLYV3L1-4" value="" style="rounded=0;whiteSpace=wrap;html=1;" parent="1" vertex="1">
          <mxGeometry x="230" y="160" width="580" height="520" as="geometry" />
        </mxCell>
        <mxCell id="WkAU_lrPhm98xwLYV3L1-5" value="Dataware House" style="text;html=1;align=center;verticalAlign=middle;whiteSpace=wrap;rounded=0;fillColor=default;" parent="1" vertex="1">
          <mxGeometry x="475" y="140" width="90" height="30" as="geometry" />
        </mxCell>
        <mxCell id="WkAU_lrPhm98xwLYV3L1-6" value="" style="rounded=0;whiteSpace=wrap;html=1;" parent="1" vertex="1">
          <mxGeometry x="860" y="160" width="120" height="520" as="geometry" />
        </mxCell>
        <mxCell id="WkAU_lrPhm98xwLYV3L1-7" value="Consumer" style="text;html=1;align=center;verticalAlign=middle;whiteSpace=wrap;rounded=0;fillColor=default;" parent="1" vertex="1">
          <mxGeometry x="870" y="140" width="90" height="30" as="geometry" />
        </mxCell>
        <mxCell id="WkAU_lrPhm98xwLYV3L1-8" value="Bronze Layer" style="rounded=0;whiteSpace=wrap;html=1;fillColor=#FFB366;fontColor=#000000;strokeColor=#BD7000;fillStyle=solid;fontStyle=1" parent="1" vertex="1">
          <mxGeometry x="250" y="180" width="160" height="30" as="geometry" />
        </mxCell>
        <mxCell id="WkAU_lrPhm98xwLYV3L1-9" value="" style="rounded=0;whiteSpace=wrap;html=1;fillStyle=solid;fillColor=#FFFFFF;fontColor=#000000;strokeColor=#B09500;labelBackgroundColor=none;" parent="1" vertex="1">
          <mxGeometry x="250" y="220" width="160" height="440" as="geometry" />
        </mxCell>
        <mxCell id="WkAU_lrPhm98xwLYV3L1-10" value="Silver&lt;font style=&quot;color: rgb(0, 0, 0);&quot;&gt;&amp;nbsp;Layer&lt;/font&gt;" style="rounded=0;whiteSpace=wrap;html=1;fillColor=#D4E1F5;fontColor=#000000;strokeColor=#BD7000;fillStyle=solid;fontStyle=1" parent="1" vertex="1">
          <mxGeometry x="450" y="180" width="160" height="30" as="geometry" />
        </mxCell>
        <mxCell id="WkAU_lrPhm98xwLYV3L1-11" value="" style="rounded=0;whiteSpace=wrap;html=1;fillStyle=solid;fillColor=#FFFFFF;fontColor=#333333;strokeColor=#666666;" parent="1" vertex="1">
          <mxGeometry x="450" y="220" width="160" height="440" as="geometry" />
        </mxCell>
        <mxCell id="WkAU_lrPhm98xwLYV3L1-12" value="Golden Layer" style="rounded=0;whiteSpace=wrap;html=1;fillColor=#FFB00A;fontColor=#000000;strokeColor=#BD7000;fillStyle=solid;fontStyle=1" parent="1" vertex="1">
          <mxGeometry x="650" y="180" width="140" height="30" as="geometry" />
        </mxCell>
        <mxCell id="WkAU_lrPhm98xwLYV3L1-13" value="" style="rounded=0;whiteSpace=wrap;html=1;fillStyle=solid;fillColor=#FFFFFF;fontColor=#000000;strokeColor=#666666;" parent="1" vertex="1">
          <mxGeometry x="640" y="220" width="150" height="440" as="geometry" />
        </mxCell>
        <mxCell id="WkAU_lrPhm98xwLYV3L1-19" value="" style="shape=link;html=1;rounded=0;" parent="1" edge="1">
          <mxGeometry width="100" relative="1" as="geometry">
            <mxPoint x="70" y="480" as="sourcePoint" />
            <mxPoint x="170" y="480" as="targetPoint" />
          </mxGeometry>
        </mxCell>
        <mxCell id="WkAU_lrPhm98xwLYV3L1-20" value="&lt;b&gt;Object type&lt;/b&gt;:CSV files&lt;div&gt;&lt;b&gt;Interface:&lt;/b&gt; files in folders&lt;/div&gt;" style="text;html=1;align=center;verticalAlign=middle;whiteSpace=wrap;rounded=0;" parent="1" vertex="1">
          <mxGeometry x="60" y="510" width="120" height="30" as="geometry" />
        </mxCell>
        <mxCell id="WkAU_lrPhm98xwLYV3L1-21" value="" style="html=1;verticalLabelPosition=bottom;align=center;labelBackgroundColor=#ffffff;verticalAlign=top;strokeWidth=2;strokeColor=#0080F0;shadow=0;dashed=0;shape=mxgraph.ios7.icons.data;fillColor=#FFB366;" parent="1" vertex="1">
          <mxGeometry x="299.5" y="270" width="51" height="70" as="geometry" />
        </mxCell>
        <mxCell id="WkAU_lrPhm98xwLYV3L1-22" value="" style="html=1;verticalLabelPosition=bottom;align=center;labelBackgroundColor=#ffffff;verticalAlign=top;strokeWidth=2;strokeColor=#0080F0;shadow=0;dashed=0;shape=mxgraph.ios7.icons.data;fillColor=#D4E1F5;" parent="1" vertex="1">
          <mxGeometry x="499.5" y="260" width="51" height="70" as="geometry" />
        </mxCell>
        <mxCell id="WkAU_lrPhm98xwLYV3L1-23" value="" style="html=1;verticalLabelPosition=bottom;align=center;labelBackgroundColor=#ffffff;verticalAlign=top;strokeWidth=2;strokeColor=#0080F0;shadow=0;dashed=0;shape=mxgraph.ios7.icons.data;fillColor=#FFB00A;" parent="1" vertex="1">
          <mxGeometry x="694.5" y="257.67" width="51" height="70" as="geometry" />
        </mxCell>
        <mxCell id="WkAU_lrPhm98xwLYV3L1-24" value="&lt;font style=&quot;color: rgb(0, 0, 0);&quot;&gt;Raw Data&lt;/font&gt;" style="text;html=1;align=center;verticalAlign=middle;whiteSpace=wrap;rounded=0;fontStyle=1;fontSize=11;" parent="1" vertex="1">
          <mxGeometry x="280" y="345" width="90" height="30" as="geometry" />
        </mxCell>
        <mxCell id="WkAU_lrPhm98xwLYV3L1-25" value="&lt;font&gt;Cleaned,Standardized data&lt;/font&gt;" style="text;html=1;align=center;verticalAlign=middle;whiteSpace=wrap;rounded=0;fontStyle=1;fontColor=#000000;fontSize=11;" parent="1" vertex="1">
          <mxGeometry x="469.75" y="345" width="110.5" height="30" as="geometry" />
        </mxCell>
        <mxCell id="WkAU_lrPhm98xwLYV3L1-26" value="&lt;font&gt;Business Ready data&lt;/font&gt;" style="text;html=1;align=center;verticalAlign=middle;whiteSpace=wrap;rounded=0;fontStyle=1;fontSize=11;fontColor=#000000;" parent="1" vertex="1">
          <mxGeometry x="675" y="330" width="90" height="30" as="geometry" />
        </mxCell>
        <mxCell id="WkAU_lrPhm98xwLYV3L1-27" value="" style="shape=mxgraph.arrows.arrow_right;html=1;verticalLabelPosition=bottom;verticalAlign=top;strokeWidth=2;strokeColor=#3A5431;fillColor=#6d8764;fontColor=#ffffff;" parent="1" vertex="1">
          <mxGeometry x="180" y="372.32" width="60" height="45.35" as="geometry" />
        </mxCell>
        <mxCell id="WkAU_lrPhm98xwLYV3L1-30" value="" style="shape=mxgraph.arrows.arrow_right;html=1;verticalLabelPosition=bottom;verticalAlign=top;strokeWidth=2;strokeColor=#3A5431;fillColor=#6d8764;fontColor=#ffffff;" parent="1" vertex="1">
          <mxGeometry x="395" y="375" width="60" height="45.35" as="geometry" />
        </mxCell>
        <mxCell id="WkAU_lrPhm98xwLYV3L1-31" value="" style="shape=mxgraph.arrows.arrow_right;html=1;verticalLabelPosition=bottom;verticalAlign=top;strokeWidth=2;strokeColor=#3A5431;fillColor=#6d8764;fontColor=#ffffff;" parent="1" vertex="1">
          <mxGeometry x="590" y="375" width="60" height="45.35" as="geometry" />
        </mxCell>
        <mxCell id="WkAU_lrPhm98xwLYV3L1-32" value="" style="shape=mxgraph.arrows.arrow_right;html=1;verticalLabelPosition=bottom;verticalAlign=top;strokeWidth=2;strokeColor=#3A5431;fillColor=#6d8764;fontColor=#ffffff;" parent="1" vertex="1">
          <mxGeometry x="800" y="382.33" width="60" height="45.35" as="geometry" />
        </mxCell>
        <mxCell id="WkAU_lrPhm98xwLYV3L1-33" value="" style="shape=link;html=1;rounded=0;strokeColor=#000000;" parent="1" edge="1">
          <mxGeometry width="100" relative="1" as="geometry">
            <mxPoint x="270" y="375" as="sourcePoint" />
            <mxPoint x="370" y="375" as="targetPoint" />
            <Array as="points" />
          </mxGeometry>
        </mxCell>
        <mxCell id="WkAU_lrPhm98xwLYV3L1-46" value="&lt;ul&gt;&lt;li&gt;&lt;font style=&quot;&quot;&gt;&lt;b&gt;&lt;font style=&quot;&quot;&gt;Object Type:&lt;/font&gt;&lt;/b&gt;Tables&lt;/font&gt;&lt;/li&gt;&lt;/ul&gt;" style="text;html=1;align=center;verticalAlign=middle;whiteSpace=wrap;rounded=0;fontColor=#000000;" parent="1" vertex="1">
          <mxGeometry x="230" y="390" width="160" height="30" as="geometry" />
        </mxCell>
        <mxCell id="WkAU_lrPhm98xwLYV3L1-49" value="&lt;ul&gt;&lt;li&gt;&lt;font style=&quot;&quot;&gt;&lt;b&gt;&lt;font style=&quot;color: rgb(0, 0, 0);&quot;&gt;&lt;font&gt;Load&lt;/font&gt;:&lt;span style=&quot;white-space: pre;&quot;&gt;&#x9;&lt;/span&gt;&lt;span style=&quot;white-space: pre;&quot;&gt;&#x9;&lt;/span&gt;&lt;span style=&quot;white-space: pre;&quot;&gt;&#x9;&lt;/span&gt;&lt;/font&gt;&lt;/b&gt;&lt;/font&gt;&lt;/li&gt;&lt;/ul&gt;&lt;ol&gt;&lt;li style=&quot;text-align: left;&quot;&gt;&lt;b style=&quot;background-color: transparent;&quot;&gt;&lt;font style=&quot;font-size: 10px; color: rgb(0, 0, 0);&quot;&gt;Batch Processing&amp;nbsp;&lt;/font&gt;&lt;/b&gt;&lt;/li&gt;&lt;li style=&quot;text-align: left;&quot;&gt;&lt;b style=&quot;background-color: transparent;&quot;&gt;&lt;font style=&quot;font-size: 10px; color: rgb(0, 0, 0);&quot;&gt;Full Load&lt;/font&gt;&lt;/b&gt;&lt;/li&gt;&lt;li style=&quot;text-align: left;&quot;&gt;&lt;b style=&quot;background-color: transparent;&quot;&gt;&lt;font style=&quot;font-size: 10px; color: rgb(0, 0, 0);&quot;&gt;Tunc &amp;amp; Insert&lt;/font&gt;&lt;/b&gt;&lt;/li&gt;&lt;/ol&gt;" style="text;html=1;align=center;verticalAlign=middle;whiteSpace=wrap;rounded=0;fontColor=#000000;" parent="1" vertex="1">
          <mxGeometry x="230" y="440" width="160" height="30" as="geometry" />
        </mxCell>
        <mxCell id="WkAU_lrPhm98xwLYV3L1-50" value="&lt;ul&gt;&lt;li&gt;&lt;font style=&quot;color: rgb(0, 0, 0);&quot;&gt;&lt;b&gt;No TransFormation&lt;/b&gt;&lt;/font&gt;&lt;/li&gt;&lt;/ul&gt;" style="text;html=1;align=center;verticalAlign=middle;whiteSpace=wrap;rounded=0;fontColor=#000000;" parent="1" vertex="1">
          <mxGeometry x="230" y="490" width="160" height="30" as="geometry" />
        </mxCell>
        <mxCell id="WkAU_lrPhm98xwLYV3L1-51" value="&lt;ul&gt;&lt;li&gt;&lt;font style=&quot;&quot;&gt;&lt;font style=&quot;&quot;&gt;&lt;b&gt;Data Model:&lt;/b&gt;None(as-is)&lt;/font&gt;&lt;/font&gt;&lt;/li&gt;&lt;/ul&gt;" style="text;html=1;align=left;verticalAlign=middle;whiteSpace=wrap;rounded=0;fontColor=#000000;" parent="1" vertex="1">
          <mxGeometry x="230" y="520" width="180" height="30" as="geometry" />
        </mxCell>
        <mxCell id="WkAU_lrPhm98xwLYV3L1-59" value="&lt;ul&gt;&lt;li&gt;&lt;font style=&quot;&quot;&gt;&lt;font style=&quot;&quot;&gt;&lt;b&gt;Data Model:&lt;/b&gt;None(as-is)&lt;/font&gt;&lt;/font&gt;&lt;/li&gt;&lt;/ul&gt;" style="text;html=1;align=left;verticalAlign=middle;whiteSpace=wrap;rounded=0;fontColor=#000000;" parent="1" vertex="1">
          <mxGeometry x="425" y="570" width="180" height="30" as="geometry" />
        </mxCell>
        <mxCell id="WkAU_lrPhm98xwLYV3L1-60" value="&lt;ul&gt;&lt;li&gt;&lt;font style=&quot;&quot;&gt;&lt;b&gt;&lt;font style=&quot;&quot;&gt;Object Type:&lt;/font&gt;&lt;/b&gt;Tables&lt;/font&gt;&lt;/li&gt;&lt;/ul&gt;" style="text;html=1;align=center;verticalAlign=middle;whiteSpace=wrap;rounded=0;fontColor=#000000;" parent="1" vertex="1">
          <mxGeometry x="430" y="375" width="160" height="30" as="geometry" />
        </mxCell>
        <mxCell id="WkAU_lrPhm98xwLYV3L1-62" value="&lt;ul&gt;&lt;li&gt;&lt;font style=&quot;color: rgb(0, 0, 0);&quot;&gt;&lt;b&gt;TransFormation&lt;/b&gt;&lt;/font&gt;&lt;/li&gt;&lt;/ul&gt;&lt;ol&gt;&lt;li style=&quot;text-align: left;&quot;&gt;&lt;font style=&quot;font-size: 11px;&quot; color=&quot;#000000&quot;&gt;Data Std. &amp;amp; Norm.&lt;/font&gt;&lt;/li&gt;&lt;li style=&quot;text-align: left;&quot;&gt;&lt;font style=&quot;font-size: 11px;&quot; color=&quot;#000000&quot;&gt;Derived Columns&lt;/font&gt;&lt;/li&gt;&lt;li style=&quot;text-align: left;&quot;&gt;&lt;font style=&quot;font-size: 11px;&quot; color=&quot;#000000&quot;&gt;Data Enrichment&lt;/font&gt;&lt;/li&gt;&lt;li style=&quot;text-align: left;&quot;&gt;&lt;font style=&quot;font-size: 11px;&quot; color=&quot;#000000&quot;&gt;Data Cleansing&lt;/font&gt;&lt;/li&gt;&lt;/ol&gt;" style="text;html=1;align=center;verticalAlign=middle;whiteSpace=wrap;rounded=0;fontColor=#000000;" parent="1" vertex="1">
          <mxGeometry x="425" y="520" width="155" height="10" as="geometry" />
        </mxCell>
        <mxCell id="WkAU_lrPhm98xwLYV3L1-69" value="&lt;ul&gt;&lt;li&gt;&lt;font style=&quot;&quot;&gt;&lt;b&gt;&lt;font style=&quot;color: rgb(0, 0, 0);&quot;&gt;&lt;font&gt;Load&lt;/font&gt;:&lt;span style=&quot;white-space: pre;&quot;&gt;&#x9;&lt;/span&gt;&lt;span style=&quot;white-space: pre;&quot;&gt;&#x9;&lt;/span&gt;&lt;span style=&quot;white-space: pre;&quot;&gt;&#x9;&lt;/span&gt;&lt;/font&gt;&lt;/b&gt;&lt;/font&gt;&lt;/li&gt;&lt;/ul&gt;&lt;ol&gt;&lt;li style=&quot;text-align: left;&quot;&gt;&lt;b style=&quot;background-color: transparent;&quot;&gt;&lt;font style=&quot;font-size: 10px; color: rgb(0, 0, 0);&quot;&gt;Batch Processing&amp;nbsp;&lt;/font&gt;&lt;/b&gt;&lt;/li&gt;&lt;li style=&quot;text-align: left;&quot;&gt;&lt;b style=&quot;background-color: transparent;&quot;&gt;&lt;font style=&quot;font-size: 10px; color: rgb(0, 0, 0);&quot;&gt;Full Load&lt;/font&gt;&lt;/b&gt;&lt;/li&gt;&lt;li style=&quot;text-align: left;&quot;&gt;&lt;b style=&quot;background-color: transparent;&quot;&gt;&lt;font style=&quot;font-size: 10px; color: rgb(0, 0, 0);&quot;&gt;Tunc &amp;amp; Insert&lt;/font&gt;&lt;/b&gt;&lt;/li&gt;&lt;/ol&gt;" style="text;html=1;align=center;verticalAlign=middle;whiteSpace=wrap;rounded=0;fontColor=#000000;" parent="1" vertex="1">
          <mxGeometry x="430" y="425" width="160" height="30" as="geometry" />
        </mxCell>
        <mxCell id="WkAU_lrPhm98xwLYV3L1-70" value="&lt;ul&gt;&lt;li&gt;&lt;font style=&quot;&quot;&gt;&lt;b&gt;&lt;font style=&quot;&quot;&gt;Object Type:&lt;/font&gt;&lt;/b&gt;Tables&lt;/font&gt;&lt;/li&gt;&lt;/ul&gt;" style="text;html=1;align=center;verticalAlign=middle;whiteSpace=wrap;rounded=0;fontColor=#000000;" parent="1" vertex="1">
          <mxGeometry x="620" y="364.65" width="160" height="30" as="geometry" />
        </mxCell>
        <mxCell id="WkAU_lrPhm98xwLYV3L1-71" value="&lt;ul&gt;&lt;li&gt;&lt;font style=&quot;color: rgb(0, 0, 0);&quot;&gt;&lt;b&gt;No Load&lt;/b&gt;&lt;/font&gt;&lt;/li&gt;&lt;/ul&gt;" style="text;html=1;align=center;verticalAlign=middle;whiteSpace=wrap;rounded=0;fontColor=#000000;" parent="1" vertex="1">
          <mxGeometry x="590" y="395" width="160" height="30" as="geometry" />
        </mxCell>
        <mxCell id="WkAU_lrPhm98xwLYV3L1-72" value="&lt;ul&gt;&lt;li&gt;&lt;font style=&quot;color: rgb(0, 0, 0);&quot;&gt;&lt;b&gt;TransFormation&lt;/b&gt;&lt;/font&gt;&lt;/li&gt;&lt;/ul&gt;&lt;ol&gt;&lt;li style=&quot;text-align: left;&quot;&gt;&lt;font style=&quot;font-size: 11px;&quot; color=&quot;#000000&quot;&gt;Data Aggresgation.&lt;/font&gt;&lt;/li&gt;&lt;li style=&quot;text-align: left;&quot;&gt;&lt;font style=&quot;font-size: 11px;&quot; color=&quot;#000000&quot;&gt;Data Integration&lt;/font&gt;&lt;/li&gt;&lt;li style=&quot;text-align: left;&quot;&gt;&lt;font color=&quot;#000000&quot;&gt;&lt;span style=&quot;font-size: 11px;&quot;&gt;Business Logics&lt;/span&gt;&lt;/font&gt;&lt;/li&gt;&lt;/ol&gt;" style="text;html=1;align=center;verticalAlign=middle;whiteSpace=wrap;rounded=0;fontColor=#000000;" parent="1" vertex="1">
          <mxGeometry x="610" y="460" width="155" height="10" as="geometry" />
        </mxCell>
        <mxCell id="WkAU_lrPhm98xwLYV3L1-73" value="&lt;ul&gt;&lt;li&gt;&lt;font style=&quot;&quot;&gt;&lt;font style=&quot;&quot;&gt;&lt;b&gt;Data Model:&lt;/b&gt;&lt;/font&gt;&lt;/font&gt;&lt;/li&gt;&lt;/ul&gt;&lt;ol&gt;&lt;li&gt;&lt;span style=&quot;background-color: transparent;&quot;&gt;&lt;font style=&quot;color: light-dark(rgb(0, 0, 0), rgb(0, 0, 0));&quot;&gt;Star Schema&amp;nbsp;&lt;/font&gt;&lt;/span&gt;&lt;/li&gt;&lt;li&gt;&lt;font style=&quot;&quot;&gt;&lt;font style=&quot;&quot;&gt;Flat Table&lt;/font&gt;&lt;/font&gt;&lt;/li&gt;&lt;li&gt;&lt;font style=&quot;&quot;&gt;&lt;font style=&quot;&quot;&gt;Aggregated Table&lt;/font&gt;&lt;/font&gt;&lt;/li&gt;&lt;/ol&gt;" style="text;html=1;align=left;verticalAlign=middle;whiteSpace=wrap;rounded=0;fontColor=#000000;" parent="1" vertex="1">
          <mxGeometry x="620" y="520" width="180" height="30" as="geometry" />
        </mxCell>
        <mxCell id="WkAU_lrPhm98xwLYV3L1-74" value="" style="points=[];aspect=fixed;html=1;align=center;shadow=0;dashed=0;fillColor=#FF6A00;strokeColor=none;shape=mxgraph.alibaba_cloud.nlp-sa_sentiment_analysis;" parent="1" vertex="1">
          <mxGeometry x="880" y="240" width="32.33" height="32.33" as="geometry" />
        </mxCell>
        <mxCell id="WkAU_lrPhm98xwLYV3L1-75" value="" style="image;aspect=fixed;html=1;points=[];align=center;fontSize=12;image=img/lib/azure2/ai_machine_learning/Anomaly_Detector.svg;" parent="1" vertex="1">
          <mxGeometry x="917.37" y="238.59" width="35.15" height="35.15" as="geometry" />
        </mxCell>
        <mxCell id="WkAU_lrPhm98xwLYV3L1-76" value="" style="points=[];aspect=fixed;html=1;align=center;shadow=0;dashed=0;fillColor=#FF6A00;strokeColor=none;shape=mxgraph.alibaba_cloud.machine_learning;" parent="1" vertex="1">
          <mxGeometry x="896.3000000000001" y="559.95" width="49.8" height="50.099999999999994" as="geometry" />
        </mxCell>
        <mxCell id="WkAU_lrPhm98xwLYV3L1-77" value="Buiness Analysis" style="text;html=1;align=center;verticalAlign=middle;whiteSpace=wrap;rounded=0;" parent="1" vertex="1">
          <mxGeometry x="886.1" y="285.35" width="60" height="30" as="geometry" />
        </mxCell>
        <mxCell id="WkAU_lrPhm98xwLYV3L1-78" value="Machine learning" style="text;html=1;align=center;verticalAlign=middle;whiteSpace=wrap;rounded=0;" parent="1" vertex="1">
          <mxGeometry x="890" y="610.05" width="60" height="30" as="geometry" />
        </mxCell>
        <mxCell id="WkAU_lrPhm98xwLYV3L1-79" value="Ad-Hoc&lt;div&gt;Sql Queries&lt;/div&gt;" style="image;aspect=fixed;html=1;points=[];align=center;fontSize=12;image=img/lib/azure2/databases/SQL_Database.svg;" parent="1" vertex="1">
          <mxGeometry x="901.63" y="390" width="36.75" height="49" as="geometry" />
        </mxCell>
        <mxCell id="WkAU_lrPhm98xwLYV3L1-84" value="CRM" style="image;aspect=fixed;html=1;points=[];align=center;fontSize=12;image=img/lib/azure2/general/Folder_Blank.svg;" parent="1" vertex="1">
          <mxGeometry x="101.52" y="387.67" width="36.96" height="30" as="geometry" />
        </mxCell>
        <mxCell id="WkAU_lrPhm98xwLYV3L1-85" value="" style="image;aspect=fixed;html=1;points=[];align=center;fontSize=12;image=img/lib/azure2/general/File.svg;" parent="1" vertex="1">
          <mxGeometry x="118.48" y="397.67" width="20" height="24.65" as="geometry" />
        </mxCell>
        <mxCell id="WkAU_lrPhm98xwLYV3L1-86" value="ERP" style="image;aspect=fixed;html=1;points=[];align=center;fontSize=12;image=img/lib/azure2/general/Folder_Blank.svg;" parent="1" vertex="1">
          <mxGeometry x="100" y="260" width="36.96" height="30" as="geometry" />
        </mxCell>
        <mxCell id="WkAU_lrPhm98xwLYV3L1-87" value="" style="image;aspect=fixed;html=1;points=[];align=center;fontSize=12;image=img/lib/azure2/general/File.svg;" parent="1" vertex="1">
          <mxGeometry x="118.48" y="270" width="20" height="24.65" as="geometry" />
        </mxCell>
        <mxCell id="WkAU_lrPhm98xwLYV3L1-88" value="" style="points=[];aspect=fixed;html=1;align=center;shadow=0;dashed=0;fillColor=#FF6A00;strokeColor=none;shape=mxgraph.alibaba_cloud.mysql;" parent="1" vertex="1">
          <mxGeometry x="230" y="135" width="26.83" height="25" as="geometry" />
        </mxCell>
        <mxCell id="WkAU_lrPhm98xwLYV3L1-89" value="Mysql Server" style="text;html=1;align=center;verticalAlign=middle;whiteSpace=wrap;rounded=0;fontStyle=1;fontSize=13;" parent="1" vertex="1">
          <mxGeometry x="249.99999999999997" y="135" width="93.17" height="30" as="geometry" />
        </mxCell>
      </root>
    </mxGraphModel>
  </diagram>
</mxfile>
